# xmcd
#
# Track frame offsets:
#	150
#	21565
#	34932
#	47692
#	60470
#	72717
#	85510
#	98730
#	113070
#	126680
#	141115
#	152345
#	167095
#	183590
#	203667
#	219507
#	232867
#	247320
#	258735
#	271335
#
# Disc length: 3883 seconds
#
# Revision: 1
# Processed by: cddbd v1.5PL3 Copyright (c) Steve Scherf et al.
# Submitted via: audiograbber 1.82.02
#
DISCID=270f2914
DTITLE=Various Artist - Feber: Lennart Persson - Stax Soul Disc 1
DYEAR=1900
DGENRE=
TTITLE0=Johnnie Taylor - I Need Lots Of Love
TTITLE1=William Bell - Will You Love Me Tomorrow
TTITLE2=Jimmy Hughes - I Like Everything About You
TTITLE3=Johnny Daye - Stay Baby Stay
TTITLE4=Judy Clay - Bed Of Roses
TTITLE5=Ollie and The Nightingales - You're Leaving Me
TTITLE6=Carla Thomas - I Like What You're Doing (To Me)
TTITLE7=The Emotions - Stealing Love
TTITLE8=Mavis Staples and William Bell - I Thank You
TTITLE9=William Bell - Born Under A Bad Sign
TTITLE10=Mavis Staples - Ready For The Heartbreak
TTITLE11=Chuck Brooks - Love's Gonna Tear Your Playhouse Down (Part1)
TTITLE12=Margie Joseph - Your Sweet Lovin'
TTITLE13=David Porter - Can't See You When I Want To
TTITLE14=Rufus Thomas - Sixty Minute Man (Part 2)
TTITLE15=Paul Thompson - What I Don't Know Won't Hurt Me
TTITLE16=Margie Joseph - Sweeter Tomorrow
TTITLE17=The Staple Singers - Who Took The Merry Out Of Christmas
TTITLE18=Major Lance - Since I Lost My Baby's Love
TTITLE19=The Rance Allen Group - Everything Is Gonna Be Alright
EXTD=
EXTT0=
EXTT1=
EXTT2=
EXTT3=
EXTT4=
EXTT5=
EXTT6=
EXTT7=
EXTT8=
EXTT9=
EXTT10=
EXTT11=
EXTT12=
EXTT13=
EXTT14=
EXTT15=
EXTT16=
EXTT17=
EXTT18=
EXTT19=
PLAYORDER=
